<?xml version="1.0" standalone="no"?>
<!DOCTYPE svg PUBLIC "-//W3C//DTD SVG 20010904//EN"
 "http://www.w3.org/TR/2001/REC-SVG-20010904/DTD/svg10.dtd">
<svg version="1.0" xmlns="http://www.w3.org/2000/svg"
 width="700.000000pt" height="700.000000pt" viewBox="0 0 700.000000 700.000000"
 preserveAspectRatio="xMidYMid meet">
<metadata>
Created by potrace 1.11, written by Peter Selinger 2001-2013
</metadata>
<g transform="translate(0.000000,700.000000) scale(0.100000,-0.100000)"
fill="#000000" stroke="none">
<path d="M4940 6388 c-96 -36 -249 -146 -422 -305 -150 -137 -513 -510 -739
-757 -30 -33 -63 -69 -74 -80 -11 -12 -38 -42 -59 -66 -22 -25 -72 -81 -111
-125 -40 -44 -94 -105 -121 -136 -106 -119 -170 -193 -196 -223 -14 -17 -36
-42 -48 -56 -12 -14 -43 -49 -68 -79 -70 -81 -185 -214 -199 -229 -7 -7 -29
-34 -50 -60 -33 -40 -66 -79 -108 -126 -5 -6 -32 -38 -60 -71 -27 -33 -52 -62
-55 -65 -3 -3 -27 -32 -55 -65 -59 -72 -60 -72 -88 -70 -59 5 -74 23 -102 124
-15 53 -45 161 -67 241 -89 321 -135 477 -230 785 -40 129 -131 402 -147 440
-5 11 -26 63 -46 115 -105 264 -175 350 -283 350 -178 0 -352 -102 -469 -275
-43 -65 -83 -137 -88 -164 -2 -9 -13 -59 -25 -111 -12 -52 -23 -102 -25 -110
-2 -8 -17 -76 -35 -150 -17 -74 -38 -164 -46 -200 -8 -36 -21 -92 -29 -125
-18 -79 -44 -195 -50 -220 -2 -11 -27 -119 -55 -240 -28 -121 -54 -231 -56
-245 -3 -14 -7 -33 -10 -42 -3 -9 -7 -25 -9 -35 -2 -10 -16 -70 -30 -133 -14
-63 -28 -124 -30 -135 -3 -11 -9 -38 -15 -60 -5 -22 -23 -98 -39 -170 -95
-414 -133 -582 -136 -595 -2 -8 -11 -46 -20 -85 -9 -38 -19 -79 -21 -90 -2
-11 -27 -119 -55 -240 -28 -121 -52 -227 -54 -235 -2 -8 -17 -76 -34 -151 -18
-75 -33 -145 -36 -155 -2 -11 -36 -158 -75 -329 -40 -170 -74 -317 -75 -325
-2 -8 -11 -46 -20 -85 -9 -38 -18 -77 -20 -85 -2 -8 -16 -69 -30 -135 -24
-106 -26 -125 -16 -165 22 -82 124 -161 292 -224 l63 -23 38 46 c157 187 320
589 508 1246 59 207 210 792 223 865 3 14 21 93 41 175 19 83 37 161 40 175 2
14 11 54 20 90 8 36 17 76 19 90 3 14 10 43 15 65 6 22 13 51 16 65 2 14 27
133 55 265 27 132 52 254 55 270 3 17 15 75 27 130 11 55 23 109 25 120 15 77
24 124 29 150 3 17 11 57 17 90 6 33 13 56 14 50 3 -9 52 -229 59 -265 2 -8 4
-15 5 -15 1 0 3 -7 5 -15 11 -54 48 -181 79 -273 117 -349 273 -601 445 -720
195 -134 400 -146 651 -37 169 73 215 109 371 290 78 91 156 181 173 200 17
19 60 69 96 110 36 41 101 116 145 165 44 50 105 119 135 154 72 83 74 86 150
171 36 41 83 94 105 119 22 25 65 72 95 106 30 33 91 101 135 149 96 107 73
81 230 251 296 321 558 584 671 674 l74 60 25 -25 c39 -39 82 -121 101 -194
24 -94 24 -385 -1 -595 -2 -16 -6 -52 -9 -80 -7 -66 -54 -367 -71 -455 -2 -14
-7 -36 -9 -50 -15 -76 -90 -426 -106 -490 -93 -378 -186 -723 -274 -1015 -20
-66 -46 -151 -57 -190 -12 -38 -27 -88 -34 -110 -8 -22 -33 -100 -55 -172 -22
-73 -46 -133 -53 -134 -7 0 -19 -2 -27 -3 -8 -2 -40 -7 -70 -11 -30 -4 -64 -8
-75 -10 -11 -2 -40 -7 -65 -11 -46 -7 -51 -8 -110 -19 -19 -4 -46 -9 -60 -12
-80 -14 -342 -84 -385 -102 -11 -5 -65 -27 -120 -50 -218 -90 -370 -221 -422
-365 -23 -65 -25 -76 -24 -171 1 -158 42 -271 134 -371 77 -84 170 -131 332
-170 17 -4 161 -9 320 -10 274 -2 296 -1 395 21 123 28 170 44 253 86 172 87
317 228 411 401 20 36 42 71 49 76 48 38 554 194 770 237 10 3 27 7 37 10 10
3 27 7 37 9 10 2 38 9 63 16 25 7 56 14 69 17 14 2 81 17 150 34 162 38 253
59 277 63 10 2 71 16 134 30 63 13 165 36 225 49 l110 24 3 121 3 122 -774 2
-774 3 34 115 c128 434 286 1029 368 1390 30 133 111 536 120 595 3 22 10 65
15 95 5 30 12 75 15 100 3 25 8 56 10 70 2 14 6 48 10 75 3 28 7 66 10 85 4
37 13 128 20 227 9 124 7 459 -3 503 -6 25 -18 79 -27 120 -23 103 -87 294
-129 385 -76 164 -204 326 -319 404 -125 85 -257 122 -447 126 -117 3 -143 1
-190 -17z"/>
</g>
</svg>
